<?xml version="1.0" standalone="no"?>
<!DOCTYPE svg PUBLIC "-//W3C//DTD SVG 20010904//EN"
 "http://www.w3.org/TR/2001/REC-SVG-20010904/DTD/svg10.dtd">
<svg version="1.0" xmlns="http://www.w3.org/2000/svg"
 width="640.000000pt" height="640.000000pt" viewBox="0 0 640.000000 640.000000"
 preserveAspectRatio="xMidYMid meet">

<g transform="translate(0.000000,640.000000) scale(0.100000,-0.100000)"
fill="#000000" stroke="none">
<path d="M307 6358 c2 -24 8 -61 13 -83 5 -22 14 -65 20 -95 31 -167 43 -229
50 -265 9 -44 11 -55 41 -230 11 -66 29 -165 40 -220 12 -55 27 -136 34 -180
8 -44 23 -129 35 -190 26 -131 45 -235 100 -535 22 -124 47 -259 55 -300 39
-210 47 -250 56 -305 5 -33 21 -118 35 -190 14 -71 32 -168 39 -215 21 -129
54 -313 59 -335 5 -19 73 -407 111 -630 26 -150 40 -231 80 -450 20 -110 40
-229 46 -265 5 -36 12 -72 15 -82 2 -9 9 -40 14 -70 5 -29 18 -105 30 -168 11
-63 29 -169 40 -235 11 -66 27 -160 36 -210 8 -49 22 -130 30 -180 8 -49 19
-112 24 -140 5 -27 14 -77 20 -110 5 -33 20 -113 33 -177 14 -69 20 -123 15
-132 -7 -12 -56 -35 -93 -42 -5 -1 -44 -13 -85 -27 -41 -14 -106 -35 -145 -46
-38 -11 -146 -43 -240 -71 -93 -28 -208 -63 -255 -77 -47 -14 -114 -34 -150
-44 -36 -11 -87 -26 -114 -34 -26 -7 -51 -16 -54 -19 -3 -3 140 -6 318 -6 252
0 321 3 312 12 -20 20 -14 28 23 28 28 0 35 -4 35 -20 0 -20 7 -20 1745 -20
l1746 0 -16 27 c-8 16 -30 53 -50 83 -19 30 -49 84 -66 120 -17 36 -35 67 -39
70 -3 3 -22 33 -40 68 -18 34 -37 62 -41 62 -5 0 -9 6 -9 14 0 8 -28 61 -62
118 -33 56 -77 132 -96 168 -19 36 -53 92 -75 125 l-41 60 2 125 c2 123 -14
270 -30 270 -4 0 -8 -7 -8 -15 0 -8 -4 -15 -10 -15 -5 0 -10 6 -10 14 0 26 12
45 25 40 7 -3 16 4 20 15 7 24 -1 41 -20 41 -7 0 -16 6 -18 13 -4 9 -6 9 -6 0
-1 -18 -46 -60 -59 -55 -7 2 -12 10 -12 18 0 8 -4 14 -10 14 -5 0 -10 7 -10
15 0 11 8 13 30 9 19 -4 30 -2 30 5 0 6 7 11 15 11 21 0 19 18 -2 23 -12 3 -9
5 8 6 43 2 51 22 53 134 l1 103 -35 32 c-19 18 -31 32 -27 32 5 0 -4 12 -19
27 -24 25 -33 28 -77 24 -34 -2 -47 0 -43 8 4 6 16 11 27 11 10 0 19 5 19 10
0 14 -33 13 -48 -2 -9 -9 -12 -9 -12 0 0 7 -4 12 -10 12 -5 0 -10 -11 -10 -24
0 -13 -6 -27 -13 -30 -9 -5 -9 -7 1 -12 14 -7 16 -34 2 -34 -5 0 -10 5 -10 10
0 6 -5 10 -11 10 -6 0 -8 -16 -6 -40 3 -30 0 -40 -10 -40 -8 0 -12 -4 -9 -8 3
-5 -6 -25 -19 -45 -14 -20 -25 -40 -25 -45 0 -5 -17 -28 -39 -51 l-39 -42 -47
11 c-30 7 -55 20 -67 35 -10 13 -25 22 -32 19 -8 -3 -23 7 -34 21 -12 15 -25
24 -30 21 -5 -3 -14 5 -20 18 -8 18 -6 25 10 35 12 7 17 18 14 28 -4 11 -2 14
9 9 9 -3 19 3 26 16 8 15 8 18 0 14 -7 -5 -11 3 -11 19 0 22 3 25 21 20 13 -5
19 -3 15 3 -3 5 0 15 8 21 8 7 11 22 8 39 l-6 27 -7 -30 c-5 -24 -7 -18 -8 26
0 31 -4 72 -8 90 -6 30 -7 31 -12 11 -3 -13 -6 22 -6 77 0 56 3 101 6 101 4 0
10 -35 14 -77 4 -43 11 -81 16 -84 5 -3 13 -32 19 -65 l9 -59 -2 72 c-2 48 1
69 7 63 13 -13 26 -13 26 1 0 5 -4 8 -9 4 -14 -8 -21 24 -25 115 -2 48 -8 85
-15 89 -6 4 -14 34 -17 67 -4 32 -12 74 -20 93 -9 20 -14 70 -14 127 0 87 1
94 20 94 11 0 20 7 20 15 0 9 -9 15 -24 15 -16 0 -26 7 -29 21 -3 12 -11 19
-19 16 -15 -5 -65 21 -72 38 -3 8 11 12 37 13 23 1 46 7 51 12 6 6 23 10 39
10 23 0 28 -4 23 -16 -4 -11 1 -18 14 -21 30 -8 16 -20 -26 -21 -58 -2 -53
-12 5 -12 44 0 52 -3 47 -16 -3 -8 -2 -12 4 -9 5 3 10 -15 12 -40 2 -25 7 -45
12 -44 5 0 13 -5 17 -13 7 -10 9 -10 9 0 0 19 30 14 31 -5 1 -10 1 -21 0 -25
0 -4 6 -5 14 -2 10 4 15 0 15 -15 0 -12 -6 -21 -12 -21 -7 0 1 -11 17 -25 17
-14 38 -23 48 -21 9 2 31 -2 47 -11 32 -15 48 -33 31 -33 -25 0 -9 -17 17 -18
15 0 47 -2 72 -4 25 -2 50 0 57 5 7 5 20 7 30 4 14 -4 13 -5 -4 -6 -13 0 -23
-6 -23 -12 0 -7 10 -9 25 -7 14 3 25 1 25 -3 0 -5 6 -9 14 -9 12 0 14 -12 11
-53 -2 -36 -1 -44 5 -27 6 17 8 2 9 -52 1 -42 5 -79 9 -82 16 -10 31 739 16
778 -10 27 -24 18 -25 -16 -1 -18 -3 -25 -6 -16 -6 23 -45 33 -71 19 -15 -8
-23 -8 -27 0 -4 6 -13 8 -20 5 -19 -7 -28 26 -15 58 5 15 10 50 10 77 0 27 3
48 8 48 24 -4 33 3 27 21 -4 11 -2 20 4 20 6 0 8 6 5 14 -3 8 -1 17 5 21 6 3
11 17 11 30 0 33 10 55 25 55 7 0 16 6 19 13 3 8 11 5 24 -10 l19 -22 7 89 c4
48 9 420 11 827 2 406 6 1090 10 1521 l8 782 -1801 0 -1800 0 5 -42z m3171
-1000 c7 -7 12 -19 12 -27 0 -14 -1 -14 -10 -1 -9 13 -11 13 -20 0 -5 -8 -8
-20 -6 -26 3 -6 8 -33 13 -60 l8 -49 5 49 c5 54 24 71 36 34 5 -13 8 -101 9
-196 0 -168 0 -173 -22 -190 -27 -19 -29 -32 -8 -32 8 0 15 4 15 9 0 6 12 4
27 -4 14 -8 38 -11 52 -9 l27 6 2 -91 c1 -55 -2 -91 -8 -91 -9 0 -14 15 -11
33 1 5 -3 6 -9 2 -6 -4 -11 6 -11 22 -2 23 -2 24 -6 6 -4 -23 -33 -33 -33 -12
0 8 -5 8 -15 -1 -8 -7 -13 -16 -10 -20 3 -5 -1 -11 -7 -13 -9 -4 -9 -8 -3 -14
6 -4 17 -21 25 -38 29 -57 50 -75 77 -64 30 11 29 11 31 -3 0 -7 3 -29 6 -48
4 -25 3 -31 -4 -20 -7 11 -10 7 -10 -17 0 -18 4 -33 9 -33 5 0 11 -23 15 -50
7 -56 -8 -129 -30 -146 -31 -24 38 -121 78 -108 16 5 19 3 14 -14 -4 -11 0
-24 9 -32 8 -7 15 -18 15 -25 0 -6 9 -20 20 -30 14 -13 17 -22 10 -29 -5 -5
-10 -20 -10 -31 0 -12 -9 -31 -21 -44 -11 -12 -18 -29 -15 -37 3 -7 1 -14 -4
-14 -5 0 -14 -18 -20 -40 -6 -22 -15 -40 -19 -40 -5 0 -14 -13 -21 -29 -6 -16
-20 -37 -29 -46 -18 -16 -18 -65 0 -65 5 0 9 -11 9 -25 0 -28 19 -75 31 -75 4
0 17 -13 28 -29 l20 -28 -27 -14 c-15 -8 -33 -20 -41 -27 -8 -8 -25 -12 -38
-9 -12 2 -23 0 -23 -4 0 -5 -7 -9 -16 -9 -8 0 -12 -4 -9 -10 4 -7 -3 -7 -19 0
-18 7 -26 6 -26 -1 0 -7 -6 -6 -16 2 -9 8 -27 12 -40 11 -15 -2 -28 4 -36 17
-8 13 -23 21 -41 21 -36 0 -87 -26 -87 -45 0 -15 25 -18 158 -19 20 -1 41 -7
45 -13 4 -7 14 -13 21 -13 17 0 56 -72 56 -104 0 -14 5 -26 10 -26 6 0 10 5
10 10 0 6 5 10 10 10 6 0 10 -6 10 -14 0 -13 -41 -26 -81 -26 -24 0 -25 17 -1
22 14 3 13 5 -5 10 -18 5 -23 2 -23 -13 0 -13 -7 -19 -24 -19 -35 0 -41 -18
-18 -50 18 -24 19 -29 6 -34 -8 -3 -13 -10 -9 -16 3 -5 -8 -24 -26 -41 -33
-33 -33 -39 0 -42 25 -2 23 -19 -4 -23 -21 -3 -37 -24 -30 -41 2 -7 -2 -13
-10 -13 -8 0 -15 9 -15 20 0 11 -4 20 -9 20 -5 0 -10 -24 -10 -52 -2 -77 -3
-88 -13 -82 -4 3 -8 -3 -8 -13 0 -10 -7 -26 -14 -36 -14 -18 -14 -18 -19 0 -3
11 -5 5 -6 -13 0 -17 -4 -33 -7 -37 -7 -7 -34 17 -34 31 0 4 -13 7 -30 4 -16
-2 -30 -8 -30 -13 0 -5 -7 -9 -15 -9 -9 0 -19 -8 -22 -17 -4 -10 -11 -21 -17
-25 -8 -5 -7 -11 2 -20 18 -18 15 -28 -8 -28 -23 0 -73 47 -67 63 2 7 19 10
40 9 31 -3 37 0 37 16 0 10 -9 29 -20 42 -19 22 -24 23 -54 12 -18 -7 -37 -12
-42 -12 -19 0 -4 123 21 175 24 51 29 75 27 131 -2 28 -6 33 -37 38 -19 4 -40
12 -47 19 -8 7 -36 23 -63 37 -54 27 -75 43 -75 59 0 5 -11 18 -25 29 -14 11
-25 28 -25 38 0 16 -2 15 -23 -4 -13 -12 -28 -22 -35 -22 -6 0 -14 -4 -17 -10
-6 -10 10 -27 81 -85 20 -16 56 -56 80 -89 36 -48 44 -66 44 -101 0 -48 -8
-54 -73 -56 -35 -2 -37 -3 -12 -6 l30 -5 -40 -13 c-30 -11 -41 -11 -48 -2 -5
7 -6 2 -2 -11 6 -21 4 -23 -17 -18 -12 3 -18 3 -11 0 8 -4 9 -13 3 -29 -5 -12
-6 -33 -3 -46 4 -17 2 -21 -5 -14 -6 6 -13 21 -15 35 -4 20 -5 20 -4 -5 3 -58
-95 -115 -133 -77 -13 14 -13 15 3 9 9 -3 17 -3 17 2 0 20 -35 35 -85 36 -48
0 -55 -2 -74 -30 -26 -39 -27 -75 -2 -104 11 -13 17 -29 14 -37 -4 -10 0 -12
11 -8 9 3 16 1 16 -5 0 -6 -4 -11 -10 -11 -6 0 -6 -9 -2 -22 10 -27 5 -58 -9
-58 -5 0 -8 -3 -8 -7 7 -43 -13 -56 -64 -42 -32 9 -35 13 -41 61 -8 57 28 216
50 225 7 2 11 10 8 17 -3 8 4 31 16 52 12 22 25 46 29 54 20 38 65 178 67 210
6 107 25 168 62 196 13 9 12 18 -3 70 -20 69 -22 119 -5 139 17 20 10 297 -7
303 -7 2 -13 11 -13 19 0 15 -39 93 -51 103 -11 8 -37 123 -32 137 3 7 -2 24
-11 38 -13 20 -16 54 -16 188 0 90 3 225 7 301 6 127 8 138 31 163 40 43 51
82 47 162 -2 40 -7 86 -10 102 -6 25 -4 29 14 29 23 0 28 15 9 24 -10 5 -10 7
0 12 6 3 12 19 12 34 0 16 5 32 10 35 6 4 4 12 -6 22 -13 14 -17 14 -25 2 -9
-15 -13 -50 -10 -87 1 -16 -2 -21 -10 -17 -8 6 -10 28 -6 73 13 130 36 123
230 -66 42 -41 77 -83 77 -92 0 -9 9 -25 20 -35 18 -16 18 -19 4 -30 -14 -10
-15 -15 -4 -36 8 -14 15 -19 17 -12 4 10 7 10 18 0 9 -9 10 -17 3 -31 -6 -11
-10 -59 -9 -107 l2 -88 -30 12 c-38 14 -104 -6 -121 -38 -16 -29 -5 -96 21
-129 23 -30 73 -42 112 -27 15 6 34 8 42 5 17 -7 20 -39 5 -49 -18 -11 2 -35
31 -35 19 0 29 -5 29 -15 0 -8 14 -30 30 -48 33 -38 38 -71 15 -97 -21 -23 -3
-29 53 -18 38 8 41 11 27 24 -24 24 -19 71 10 90 13 9 27 23 30 32 2 10 15 22
27 27 16 7 22 18 21 35 -1 14 0 35 3 48 4 21 8 23 48 17 74 -11 136 35 136
102 l0 33 55 0 c30 0 55 5 55 10 0 6 -7 10 -15 10 -8 0 -15 5 -15 10 0 6 -15
10 -32 10 -18 0 -53 8 -78 17 -25 8 -66 16 -92 16 -40 -1 -48 2 -48 18 0 29
-1 33 -12 46 -6 7 -6 24 0 47 8 27 7 36 -4 40 -8 3 -14 16 -13 28 1 22 1 22 9
-2 7 -22 8 -22 10 -5 1 11 2 23 2 26 -1 3 14 3 31 1 31 -5 32 -4 15 15 -10 11
-18 25 -18 31 0 12 -8 15 -50 16 -17 1 -24 6 -22 16 2 8 4 23 5 32 1 16 2 16
18 0 9 -9 15 -20 12 -24 -2 -5 3 -8 11 -8 12 0 16 11 16 43 0 36 7 51 37 88
21 24 41 46 45 47 5 2 8 8 8 14 0 13 87 125 102 131 23 10 54 7 66 -5z m-898
-128 c0 -5 -2 -10 -4 -10 -3 0 -8 5 -11 10 -3 6 -1 10 4 10 6 0 11 -4 11 -10z
m334 -172 c-3 -4 -12 -8 -20 -8 -8 0 -14 4 -14 8 0 4 9 8 19 8 11 0 17 -4 15
-8z m-14 -29 c0 -11 -27 -12 -34 -1 -2 4 4 9 15 9 10 1 19 -2 19 -8z m225 -63
c-4 -11 -6 -31 -6 -43 1 -16 -5 -23 -18 -23 -13 0 -18 -6 -16 -17 2 -10 4 -36
5 -58 l2 -40 9 44 c9 49 25 73 33 50 15 -46 26 -118 22 -146 -3 -18 -1 -35 4
-38 5 -3 7 -11 5 -18 -2 -7 -6 -32 -9 -57 -6 -58 -23 -97 -58 -134 -35 -37
-45 -66 -27 -77 20 -12 1 -11 -22 2 -11 5 -24 21 -29 35 -5 13 -16 24 -25 24
-23 0 -18 18 6 22 19 3 19 4 5 23 -12 15 -15 16 -10 3 5 -15 3 -16 -20 -5 -15
7 -24 18 -21 27 5 17 -6 64 -29 126 -13 36 -13 48 -1 100 8 32 14 72 15 88 0
28 1 28 19 12 11 -10 22 -29 25 -42 4 -14 11 -22 16 -19 14 8 17 -4 25 -83 4
-39 11 -84 16 -100 l8 -27 -2 30 c-2 28 0 30 28 27 l30 -3 -23 16 c-12 9 -20
21 -17 26 4 5 6 72 6 149 -1 118 1 140 14 140 8 0 15 4 15 10 0 5 7 7 16 3 11
-4 14 -12 9 -27z m-175 5 c0 -5 11 -12 25 -15 18 -5 25 -13 25 -31 0 -16 -6
-25 -16 -25 -21 0 -44 25 -44 48 0 11 -6 23 -12 25 -8 3 -6 6 5 6 9 1 17 -3
17 -8z m56 -148 c-11 -11 -19 6 -11 24 8 17 8 17 12 0 3 -10 2 -21 -1 -24z
m-170 -261 c-16 -2 -32 0 -37 5 -5 5 7 7 29 4 34 -5 35 -6 8 -9z m-151 -1812
c3 0 3 5 0 10 -3 6 -2 10 3 10 6 0 15 -13 21 -30 10 -30 10 -30 -29 -30 -21 0
-41 4 -44 9 -4 5 4 7 16 4 21 -5 22 -4 7 11 -10 11 -14 28 -11 48 l5 31 13
-32 c7 -17 16 -31 19 -31z m-164 -131 c-5 -13 -10 -19 -10 -12 -1 15 10 45 15
40 3 -2 0 -15 -5 -28z m888 -82 c8 -10 7 -14 -4 -14 -8 0 -15 6 -15 14 0 7 2
13 4 13 2 0 9 -6 15 -13z m98 -112 c8 -9 13 -18 11 -21 -3 -2 -13 5 -23 16
-21 23 -11 27 12 5z m-522 -485 c5 -17 15 -20 69 -20 l63 0 11 -37 c8 -24 8
-39 2 -41 -6 -2 -10 -13 -10 -24 0 -16 5 -19 25 -16 16 3 25 1 25 -7 0 -7 7
-18 15 -25 21 -18 19 -48 -5 -55 -23 -7 -26 -21 -7 -28 6 -3 -3 -6 -20 -6 -18
-1 -33 -5 -33 -11 0 -5 -9 -10 -20 -10 -34 0 -22 -20 13 -21 17 0 40 -4 50 -8
17 -6 17 -8 3 -20 -8 -7 -23 -10 -33 -7 -31 10 -24 -42 7 -59 14 -8 19 -14 13
-15 -21 0 -16 -78 7 -115 23 -37 29 -41 94 -50 47 -7 54 -25 10 -25 -15 0 -24
-6 -24 -15 0 -12 4 -13 19 -5 26 13 52 14 31 0 -12 -7 -8 -10 14 -10 24 0 27
2 16 15 -17 21 -1 19 23 -2 11 -10 17 -13 14 -6 -4 6 -4 18 -1 26 6 17 52 29
60 16 3 -5 29 -8 57 -8 29 1 42 4 31 6 -33 6 -36 45 -6 74 19 18 37 24 83 25
35 1 57 -2 56 -8 -1 -5 8 -14 21 -19 13 -5 22 -5 22 1 0 6 9 10 20 10 16 0 20
-7 20 -30 0 -16 5 -30 10 -30 6 0 10 -4 10 -10 0 -5 -7 -10 -15 -10 -8 0 -15
9 -15 20 0 13 -7 20 -19 20 -11 0 -28 3 -38 6 -15 5 -16 4 -3 -5 13 -10 13
-12 0 -20 -8 -6 -11 -14 -6 -18 5 -4 11 -2 13 5 8 20 20 14 33 -18 7 -16 15
-30 19 -30 3 0 12 -13 19 -30 10 -22 11 -43 4 -82 -5 -29 -10 -43 -11 -30 -1
15 -7 22 -20 22 -16 0 -20 -7 -19 -40 0 -41 11 -52 22 -24 4 9 9 14 13 11 3
-4 12 -2 19 4 9 8 11 5 7 -10 -3 -13 -1 -21 8 -21 22 0 2 -11 -35 -20 -28 -6
-36 -5 -36 6 0 9 -12 14 -36 14 -27 0 -37 -5 -41 -20 -4 -16 -14 -20 -47 -21
-22 -1 -33 -3 -22 -6 17 -5 16 -7 -9 -29 -28 -24 -110 -52 -177 -61 -21 -3
-38 -9 -38 -14 0 -4 -8 -8 -17 -8 -10 0 -29 -2 -43 -3 -19 -2 -26 2 -28 20 -2
12 -7 20 -11 17 -7 -4 -41 63 -45 87 -1 4 -7 13 -13 19 -7 7 -13 23 -13 36 0
13 -4 23 -10 23 -5 0 -10 16 -10 35 0 19 -4 35 -9 35 -5 0 -11 8 -15 18 -3 9
-10 24 -15 32 -18 29 -51 119 -51 139 0 12 -7 21 -15 21 -19 0 -42 53 -26 58
20 7 11 24 -9 19 -26 -7 -26 9 -1 23 26 13 29 13 34 -7 3 -10 5 2 4 27 0 25
-2 35 -4 23 -3 -16 -11 -23 -28 -23 -13 0 -26 -6 -28 -12 -3 -7 -6 -4 -6 6 -1
11 -7 27 -15 35 -19 22 -30 77 -17 86 7 4 11 -9 12 -37 1 -39 2 -37 10 20 5
34 6 90 1 125 l-8 62 -8 -80 c-9 -91 -11 -96 -31 -88 -9 3 -15 18 -15 39 0 19
-5 43 -12 53 -14 22 3 94 28 119 9 8 13 21 10 28 -3 9 7 19 27 28 43 19 45 19
52 -4z m653 -852 c-2 -6 -10 -14 -16 -16 -7 -2 -10 2 -6 12 7 18 28 22 22 4z
m-51 -24 c-3 -3 -12 -4 -19 -1 -8 3 -5 6 6 6 11 1 17 -2 13 -5z m-1619 -216
c7 -7 12 -31 12 -54 0 -34 4 -44 20 -49 16 -5 20 -15 20 -55 0 -47 0 -48 -36
-52 -44 -5 -55 12 -60 93 -2 32 -5 63 -6 71 -2 8 8 14 25 16 15 2 27 8 27 13
0 5 -12 9 -27 9 -22 0 -25 2 -13 10 19 13 24 12 38 -2z m-91 -94 c-2 -3 -16 1
-30 7 -20 9 -23 14 -14 24 24 24 42 23 45 -2 2 -14 1 -27 -1 -29z m-4 -41 c-7
-2 -19 -2 -25 0 -7 3 -2 5 12 5 14 0 19 -2 13 -5z m7 -33 c0 -13 -11 -13 -30
0 -12 8 -11 10 8 10 12 0 22 -4 22 -10z"/>
<path d="M3426 5305 c-3 -8 -1 -15 4 -15 6 0 10 7 10 15 0 8 -2 15 -4 15 -2 0
-6 -7 -10 -15z"/>
<path d="M2820 5010 c0 -5 5 -10 11 -10 5 0 7 5 4 10 -3 6 -8 10 -11 10 -2 0
-4 -4 -4 -10z"/>
<path d="M2821 4974 c0 -11 3 -14 6 -6 3 7 2 16 -1 19 -3 4 -6 -2 -5 -13z"/>
<path d="M3591 4784 c0 -11 3 -14 6 -6 3 7 2 16 -1 19 -3 4 -6 -2 -5 -13z"/>
<path d="M3632 4425 c0 -16 2 -22 5 -12 2 9 2 23 0 30 -3 6 -5 -1 -5 -18z"/>
<path d="M3230 4427 c0 -8 11 -17 25 -20 20 -3 25 -1 23 12 -4 21 -48 28 -48
8z"/>
<path d="M3292 4419 c5 -16 68 -25 68 -10 0 6 -9 11 -19 11 -11 0 -27 3 -37 7
-12 4 -15 2 -12 -8z"/>
<path d="M3163 4173 c9 -2 23 -2 30 0 6 3 -1 5 -18 5 -16 0 -22 -2 -12 -5z"/>
<path d="M3075 4160 c3 -5 16 -10 28 -9 21 0 21 1 2 9 -28 12 -37 12 -30 0z"/>
<path d="M3028 4153 c6 -2 18 -2 25 0 6 3 1 5 -13 5 -14 0 -19 -2 -12 -5z"/>
<path d="M3161 4153 c4 -22 -3 -32 -23 -36 -13 -2 1 -5 30 -6 49 -1 52 0 52
24 0 21 -5 25 -30 25 -16 0 -29 -3 -29 -7z"/>
<path d="M3570 3701 c0 -7 -4 -9 -10 -6 -5 3 -10 1 -10 -4 0 -6 12 -11 28 -11
15 0 23 4 17 8 -5 4 -13 11 -17 16 -5 5 -8 4 -8 -3z"/>
<path d="M3520 3580 c0 -5 5 -10 10 -10 6 0 10 5 10 10 0 6 -4 10 -10 10 -5 0
-10 -4 -10 -10z"/>
<path d="M3212 3418 c-5 -7 -13 -24 -17 -38 l-7 -25 28 26 c16 15 38 31 49 37
18 10 17 11 -11 12 -17 0 -36 -6 -42 -12z"/>
<path d="M3230 3080 c-11 -7 -11 -10 -2 -10 7 0 10 -5 7 -10 -4 -7 -13 -7 -25
0 -16 9 -18 8 -13 -6 5 -13 0 -15 -25 -11 -27 4 -33 1 -44 -23 -7 -16 -16 -26
-20 -24 -4 3 -8 -4 -8 -15 0 -12 4 -21 9 -21 5 0 11 -9 14 -21 4 -15 11 -19
24 -15 10 3 35 1 56 -3 34 -8 39 -7 47 13 4 13 8 29 8 37 -3 45 2 61 15 50 8
-6 17 -8 20 -4 4 3 7 -8 7 -25 0 -49 18 -38 22 13 3 44 -2 51 -34 46 -5 0 -7
2 -7 7 5 32 -19 43 -51 22z"/>
<path d="M2702 3029 c2 -6 8 -10 13 -10 5 0 11 4 13 10 2 6 -4 11 -13 11 -9 0
-15 -5 -13 -11z"/>
<path d="M2612 2905 c0 -16 2 -22 5 -12 2 9 2 23 0 30 -3 6 -5 -1 -5 -18z"/>
<path d="M2545 2909 c-4 -6 -5 -12 -2 -15 2 -3 7 2 10 11 7 17 1 20 -8 4z"/>
<path d="M2510 2890 c0 -5 5 -10 11 -10 5 0 7 5 4 10 -3 6 -8 10 -11 10 -2 0
-4 -4 -4 -10z"/>
<path d="M3240 2890 c0 -5 5 -10 10 -10 6 0 10 5 10 10 0 6 -4 10 -10 10 -5 0
-10 -4 -10 -10z"/>
<path d="M3055 4590 c-3 -5 1 -10 10 -10 9 0 13 5 10 10 -3 6 -8 10 -10 10 -2
0 -7 -4 -10 -10z"/>
<path d="M3101 4524 c0 -11 3 -14 6 -6 3 7 2 16 -1 19 -3 4 -6 -2 -5 -13z"/>
<path d="M2920 1900 c0 -11 7 -20 15 -20 8 0 15 9 15 20 0 11 -7 20 -15 20 -8
0 -15 -9 -15 -20z"/>
<path d="M2980 1740 c0 -87 4 -140 10 -140 6 0 10 53 10 140 0 87 -4 140 -10
140 -6 0 -10 -53 -10 -140z"/>
<path d="M3020 1860 c0 -17 7 -20 50 -20 43 0 50 3 50 20 0 17 -7 20 -50 20
-43 0 -50 -3 -50 -20z"/>
<path d="M2877 1820 c-8 -31 3 -60 24 -60 15 0 19 7 19 40 0 33 -4 40 -19 40
-10 0 -21 -9 -24 -20z"/>
<path d="M3535 1440 c-11 -5 -14 -9 -7 -9 6 -1 12 -6 12 -12 0 -6 -7 -9 -15
-5 -8 3 -15 1 -15 -4 0 -6 11 -10 25 -10 20 0 25 5 25 25 0 14 -1 25 -2 24 -2
0 -12 -4 -23 -9z"/>
<path d="M3041 1423 c-1 -16 5 -23 18 -23 18 0 37 27 26 38 -3 3 -5 0 -5 -6 0
-16 -27 -15 -33 1 -3 6 -6 2 -6 -10z"/>
<path d="M3153 1362 c-31 -3 -33 -6 -33 -43 0 -32 4 -39 19 -39 11 0 22 -6 24
-12 4 -10 6 -10 6 0 1 6 8 12 16 12 8 0 15 7 15 15 0 8 6 15 13 15 8 0 7 4 -3
10 -11 7 -11 10 -2 10 7 0 11 4 7 9 -3 5 3 11 12 13 26 6 -35 14 -74 10z"/>
<path d="M3070 1353 c0 -5 5 -15 10 -23 8 -12 10 -11 10 8 0 12 -4 22 -10 22
-5 0 -10 -3 -10 -7z"/>
<path d="M3436 1331 c-3 -4 6 -6 19 -3 14 2 25 6 25 8 0 8 -39 4 -44 -5z"/>
<path d="M3371 1304 c0 -11 3 -14 6 -6 3 7 2 16 -1 19 -3 4 -6 -2 -5 -13z"/>
<path d="M3235 1270 c3 -5 11 -10 16 -10 6 0 7 5 4 10 -3 6 -11 10 -16 10 -6
0 -7 -4 -4 -10z"/>
<path d="M3460 1100 c0 -11 2 -20 4 -20 2 0 11 -3 20 -6 20 -8 21 12 2 32 -20
19 -26 18 -26 -6z"/>
<path d="M3230 1090 c0 -5 5 -10 11 -10 5 0 7 5 4 10 -3 6 -8 10 -11 10 -2 0
-4 -4 -4 -10z"/>
<path d="M3228 1033 c6 -2 18 -2 25 0 6 3 1 5 -13 5 -14 0 -19 -2 -12 -5z"/>
<path d="M3320 1010 c0 -5 5 -10 11 -10 5 0 7 5 4 10 -3 6 -8 10 -11 10 -2 0
-4 -4 -4 -10z"/>
<path d="M5660 6358 c0 -24 -7 -101 -16 -173 -21 -180 -42 -368 -54 -510 -6
-66 -29 -302 -51 -525 -21 -223 -41 -445 -44 -495 -3 -49 -10 -115 -15 -145
-5 -30 -14 -111 -20 -180 -6 -69 -18 -192 -25 -275 -40 -411 -67 -707 -80
-870 -15 -178 -66 -773 -105 -1220 -11 -126 -24 -295 -30 -375 -6 -80 -15
-179 -20 -220 -5 -41 -12 -109 -15 -150 -3 -41 -12 -145 -20 -230 -8 -85 -21
-240 -30 -345 -18 -211 -52 -549 -61 -607 l-6 -38 666 0 666 0 0 224 0 224
-42 -10 c-77 -17 -87 -6 -22 27 l59 30 3 518 c1 343 -1 517 -8 517 -5 0 -10 5
-10 11 0 5 4 8 8 5 5 -3 9 2 9 10 0 10 -7 14 -18 11 -18 -5 -47 23 -42 40 4
12 -24 26 -37 18 -16 -10 -60 18 -66 42 -4 13 3 85 15 161 12 75 24 157 27
182 3 25 7 53 10 63 7 22 6 22 -119 -13 -59 -17 -113 -30 -120 -29 -18 0 46
24 145 54 52 16 91 33 97 43 9 19 30 141 37 223 3 29 7 55 9 59 3 4 17 77 32
161 l27 154 3 993 c2 545 2 992 0 992 -2 0 -158 -33 -348 -74 -289 -62 -517
-102 -459 -80 8 3 24 9 35 14 20 9 85 23 360 80 83 17 202 42 266 55 63 14
123 25 132 25 16 0 17 58 17 835 l0 835 -370 0 -370 0 0 -42z m335 -4343 c-34
-16 -199 -66 -291 -89 -34 -9 -108 -31 -165 -49 -104 -34 -179 -52 -179 -43 0
6 135 50 230 75 41 10 138 38 215 61 211 63 249 72 190 45z m125 -352 c40 -35
41 -38 38 -92 l-3 -56 -51 -25 c-28 -14 -61 -29 -74 -35 -20 -9 -22 -17 -23
-97 -2 -100 -13 -111 -41 -43 -11 25 -22 45 -26 45 -4 0 -11 -15 -14 -32 -9
-44 -22 -58 -86 -92 -30 -16 -60 -33 -66 -37 -5 -5 -11 -44 -12 -87 l-1 -79
27 3 c14 1 28 8 30 13 2 6 10 11 18 11 9 0 12 -5 9 -11 -4 -6 0 -9 11 -7 28 5
42 -38 35 -107 -6 -55 -11 -65 -51 -106 -67 -68 -71 -75 -77 -133 -6 -58 -32
-88 -58 -66 -10 9 -15 4 -20 -20 -6 -25 -9 -29 -21 -19 -11 9 -19 8 -35 -7
l-21 -19 21 -16 c12 -10 21 -20 21 -22 0 -12 -60 -17 -79 -7 -17 9 -21 8 -21
-5 0 -9 5 -13 11 -9 8 4 8 1 1 -12 -5 -11 -12 -45 -16 -76 -5 -48 -3 -59 11
-68 15 -9 12 -10 -13 -5 -33 6 -52 -7 -59 -43 -3 -17 2 -20 37 -20 23 -1 45
-7 49 -14 14 -21 11 -70 -3 -65 -7 2 -12 12 -10 22 3 16 2 16 -12 2 -18 -17
-115 -34 -125 -20 -10 14 -54 39 -91 52 -19 6 -51 26 -70 43 l-35 32 3 120 c1
67 6 155 12 196 11 82 26 225 35 335 7 77 22 144 37 162 7 9 4 20 -11 39 -12
15 -21 37 -21 49 0 42 60 133 123 188 74 63 119 91 195 117 173 59 234 81 297
105 72 29 151 53 172 54 7 1 31 -15 53 -36z m-549 -1246 c-8 -8 -11 -3 -11 19
1 25 2 27 11 11 8 -14 8 -22 0 -30z m26 -63 c-2 -3 -12 -2 -21 2 -21 8 -21 33
2 50 15 11 17 9 20 -18 2 -16 1 -32 -1 -34z"/>
<path d="M5668 1163 c6 -2 18 -2 25 0 6 3 1 5 -13 5 -14 0 -19 -2 -12 -5z"/>
<path d="M5560 570 c0 -13 11 -13 30 0 12 8 11 10 -7 10 -13 0 -23 -4 -23 -10z"/>
<path d="M5423 528 c-2 -5 7 -8 21 -8 13 0 27 -6 29 -12 3 -7 6 -4 6 7 1 15
-5 20 -25 20 -14 0 -28 -3 -31 -7z"/>
<path d="M5480 230 c0 -5 11 -10 25 -10 14 0 25 5 25 10 0 6 -11 10 -25 10
-14 0 -25 -4 -25 -10z"/>
<path d="M3742 2940 c0 -14 2 -19 5 -12 2 6 2 18 0 25 -3 6 -5 1 -5 -13z"/>
<path d="M3762 2923 c-1 -23 -8 -44 -14 -46 -7 -3 12 -5 42 -5 30 0 47 2 38 5
-13 3 -18 16 -20 46 l-1 42 -6 -45 c-6 -37 -8 -40 -13 -20 l-5 25 -3 -25 c-2
-17 -5 -11 -10 20 l-7 45 -1 -42z"/>
<path d="M3222 2651 c2 -7 7 -12 11 -12 12 1 9 15 -3 20 -7 2 -11 -2 -8 -8z"/>
<path d="M3322 2380 c0 -14 2 -19 5 -12 2 6 2 18 0 25 -3 6 -5 1 -5 -13z"/>
<path d="M3550 2370 c0 -6 7 -10 15 -10 8 0 15 2 15 4 0 2 -7 6 -15 10 -8 3
-15 1 -15 -4z"/>
<path d="M3327 2323 c-16 -15 -6 -43 15 -43 21 0 21 1 3 13 -10 8 -15 19 -11
25 8 13 3 16 -7 5z"/>
<path d="M3635 2321 c-7 -12 37 -33 45 -21 3 4 12 10 20 13 8 2 3 3 -11 1 -14
-1 -31 2 -36 7 -8 8 -13 7 -18 0z"/>
<path d="M3350 2138 c0 -19 2 -20 10 -8 13 19 13 30 0 30 -5 0 -10 -10 -10
-22z"/>
<path d="M3402 2100 c0 -14 2 -19 5 -12 2 6 2 18 0 25 -3 6 -5 1 -5 -13z"/>
<path d="M3850 1965 c0 -58 4 -105 9 -105 13 0 24 120 16 169 -12 75 -25 43
-25 -64z"/>
<path d="M6391 1984 c0 -11 3 -14 6 -6 3 7 2 16 -1 19 -3 4 -6 -2 -5 -13z"/>
<path d="M3798 1964 c-11 -17 7 -69 25 -72 13 -3 17 4 17 32 0 42 -19 60 -21
19 l-1 -28 -7 30 c-3 17 -10 25 -13 19z"/>
<path d="M6387 1953 c-4 -3 -7 -13 -7 -22 1 -13 3 -13 11 2 11 19 8 33 -4 20z"/>
<path d="M3626 1851 c-5 -8 84 -3 93 5 2 2 -16 4 -42 4 -25 0 -48 -4 -51 -9z"/>
<path d="M3555 1830 c3 -5 10 -10 16 -10 5 0 9 5 9 10 0 6 -7 10 -16 10 -8 0
-12 -4 -9 -10z"/>
<path d="M3800 1829 c0 -5 5 -7 10 -4 6 3 10 8 10 11 0 2 -4 4 -10 4 -5 0 -10
-5 -10 -11z"/>
<path d="M6390 1826 c0 -8 -11 -24 -25 -37 -29 -28 -32 -48 -7 -44 9 1 16 9
14 19 -2 9 4 16 13 16 10 0 15 10 15 30 0 17 -2 30 -5 30 -3 0 -5 -6 -5 -14z"/>
<path d="M3610 1820 c0 -5 5 -10 10 -10 6 0 10 5 10 10 0 6 -4 10 -10 10 -5 0
-10 -4 -10 -10z"/>
<path d="M6380 1620 c0 -11 5 -20 10 -20 6 0 10 9 10 20 0 11 -4 20 -10 20 -5
0 -10 -9 -10 -20z"/>
<path d="M6361 1584 c0 -11 3 -14 6 -6 3 7 2 16 -1 19 -3 4 -6 -2 -5 -13z"/>
<path d="M128 493 c6 -2 18 -2 25 0 6 3 1 5 -13 5 -14 0 -19 -2 -12 -5z"/>
<path d="M200 460 c0 -5 7 -10 16 -10 8 0 12 5 9 10 -3 6 -10 10 -16 10 -5 0
-9 -4 -9 -10z"/>
<path d="M240 450 c0 -6 26 -10 59 -10 33 0 62 -5 64 -10 3 -6 4 -5 3 2 -5 23
-126 40 -126 18z"/>
<path d="M430 393 c0 -4 5 -15 10 -23 8 -13 10 -13 10 2 0 9 -4 20 -10 23 -5
3 -10 3 -10 -2z"/>
<path d="M0 200 c0 -88 2 -160 5 -160 12 0 55 24 55 32 0 4 15 8 33 9 30 1 31
1 7 9 -14 4 -23 9 -20 9 3 1 23 8 45 16 33 12 36 14 15 15 l-25 1 23 11 c16 8
22 20 22 45 0 19 -5 34 -12 35 -7 0 -20 1 -28 2 -8 1 -15 9 -15 18 0 9 -10 26
-22 38 -25 23 -30 56 -10 63 6 2 8 8 4 13 -4 5 -12 2 -17 -6 -7 -12 -12 -12
-22 -2 -33 33 -38 16 -38 -148z"/>
<path d="M441 334 c0 -11 3 -14 6 -6 3 7 2 16 -1 19 -3 4 -6 -2 -5 -13z"/>
<path d="M412 300 c0 -14 2 -19 5 -12 2 6 2 18 0 25 -3 6 -5 1 -5 -13z"/>
<path d="M392 244 c-7 -8 -8 -14 -3 -14 10 0 25 19 20 25 -2 1 -10 -3 -17 -11z"/>
<path d="M240 140 c0 -13 7 -20 19 -20 11 0 21 -6 24 -12 3 -9 10 -7 23 8 11
11 28 26 39 32 17 9 9 11 -42 12 -56 0 -63 -2 -63 -20z"/>
<path d="M163 63 c-3 -10 -8 -22 -11 -27 -3 -5 0 -6 6 -2 7 4 12 14 12 23 0
10 6 14 20 10 11 -3 23 -1 26 4 3 5 -6 9 -21 9 -15 0 -28 -7 -32 -17z"/>
<path d="M53 45 c-20 -22 -16 -45 7 -45 16 0 20 7 20 30 0 33 -8 37 -27 15z"/>
</g>
</svg>
